<?xml version="1.0" standalone="no"?>
<!DOCTYPE svg PUBLIC "-//W3C//DTD SVG 20010904//EN"
 "http://www.w3.org/TR/2001/REC-SVG-20010904/DTD/svg10.dtd">
<svg version="1.0" xmlns="http://www.w3.org/2000/svg"
 width="920.000000pt" height="922.000000pt" viewBox="0 0 920.000000 922.000000"
 preserveAspectRatio="xMidYMid meet">

<g transform="translate(0.000000,922.000000) scale(0.100000,-0.100000)"
fill="#000000" stroke="none">
<path d="M6733 8649 c-215 -45 -496 -191 -773 -402 -36 -27 -79 -63 -97 -80
l-31 -29 -104 30 c-244 72 -510 116 -806 134 -406 24 -944 -35 -1326 -146
l-89 -26 -101 64 c-195 122 -501 285 -645 343 -166 67 -234 84 -344 90 -102 5
-109 4 -145 -19 -21 -14 -47 -45 -60 -71 -33 -67 -70 -198 -82 -290 -13 -103
-13 -333 0 -457 10 -97 65 -385 81 -428 8 -21 2 -30 -47 -75 -123 -112 -206
-263 -278 -502 -86 -290 -101 -816 -35 -1285 5 -41 23 -127 39 -190 154 -608
552 -1043 1190 -1299 185 -74 407 -132 638 -165 90 -13 165 -26 168 -29 3 -3
-13 -22 -36 -43 -91 -82 -172 -226 -209 -370 -26 -104 -37 -194 -23 -194 6 0
45 -5 88 -11 94 -13 177 -48 227 -97 43 -42 57 -83 57 -165 l0 -57 648 2 647
3 -3 34 c-6 51 49 153 104 195 79 61 242 99 329 78 39 -10 38 -10 -26 -11
-235 -4 -379 -106 -379 -271 0 -114 62 -181 180 -195 l55 -7 18 36 c22 47 40
47 35 1 -4 -32 0 -38 30 -57 37 -22 109 -27 154 -9 17 6 33 24 43 46 16 39 41
39 31 0 -5 -18 0 -25 24 -35 94 -39 178 15 204 132 l12 53 58 5 58 5 59 100
c32 55 84 146 115 201 78 142 106 174 151 174 46 0 72 -28 144 -156 121 -213
171 -299 181 -311 7 -9 103 -13 361 -15 l352 -3 80 -34 c157 -68 288 -235 315
-401 14 -90 13 -910 -1 -1003 -34 -217 -219 -401 -439 -436 -87 -14 -2455 -15
-2680 -1 -218 14 -386 43 -545 95 -229 75 -445 108 -715 108 -318 1 -545 -57
-684 -173 l-49 -41 -621 4 c-478 2 -630 6 -661 16 -177 59 -290 162 -363 332
l-27 64 0 530 c0 528 0 530 23 589 33 84 66 137 125 198 61 63 121 101 215
134 65 23 76 24 383 24 l316 0 68 118 c38 64 94 162 126 217 69 120 93 145
135 145 44 0 67 -22 123 -120 90 -159 157 -275 184 -318 l27 -42 130 0 130 0
15 -37 c32 -75 92 -113 179 -113 50 0 56 3 68 27 7 14 19 29 27 31 11 4 13 -3
8 -32 -5 -34 -3 -39 26 -56 66 -41 178 -18 199 41 13 37 28 37 28 0 0 -24 6
-31 31 -40 116 -40 195 37 206 199 9 129 -28 195 -135 243 -142 64 -407 62
-514 -3 -28 -17 -50 -20 -148 -20 l-115 1 -30 52 c-16 29 -73 127 -125 219
-86 152 -99 170 -137 189 -73 36 -125 4 -183 -110 -12 -24 -42 -62 -66 -84
-25 -22 -59 -66 -76 -96 -17 -31 -47 -82 -66 -113 l-34 -57 -302 -3 c-301 -4
-301 -4 -369 -31 -129 -51 -218 -124 -288 -235 -16 -26 -44 -63 -62 -82 -88
-95 -146 -204 -166 -314 -15 -82 -15 -947 0 -1035 21 -124 98 -257 196 -338
61 -51 172 -108 240 -122 34 -7 258 -11 633 -11 319 -1 587 -3 594 -6 11 -4 9
-14 -9 -47 -37 -65 -55 -155 -55 -264 0 -170 59 -304 184 -418 117 -108 282
-179 466 -200 143 -17 355 54 454 152 132 131 128 282 -11 400 -87 73 -153
139 -153 151 0 6 12 20 27 29 23 16 49 18 183 16 85 -1 229 -11 320 -22 279
-34 409 -51 565 -72 212 -30 525 -23 734 15 278 51 566 134 811 235 l75 31
570 0 c634 0 629 0 757 67 123 64 230 191 273 324 10 30 23 61 30 69 33 41 68
118 85 187 18 69 20 112 20 474 0 256 4 400 10 404 6 3 13 -1 16 -9 9 -24 88
-49 128 -42 65 12 116 75 116 142 0 40 -30 94 -64 115 -54 33 -148 20 -185
-25 -21 -25 -26 -20 -39 43 -35 168 -177 324 -355 389 -72 26 -74 26 -409 30
-252 2 -339 6 -347 16 -6 6 -38 61 -72 122 -34 60 -84 148 -112 197 -51 89
-90 132 -132 143 -38 10 -93 -23 -123 -75 -46 -79 -72 -115 -106 -143 -18 -14
-47 -53 -65 -85 -18 -32 -47 -83 -65 -113 l-32 -55 -149 -3 c-133 -2 -158 0
-222 20 l-73 23 0 83 c0 106 -33 269 -70 349 -40 86 -98 168 -169 238 -34 33
-61 62 -61 65 0 3 48 11 108 18 400 45 779 166 1067 341 311 189 541 451 683
776 178 410 236 1036 137 1495 -70 326 -230 653 -417 856 -37 40 -39 45 -29
76 20 65 62 311 76 451 17 164 19 411 5 512 -12 80 -60 189 -93 206 -77 42
-210 49 -354 18z m-910 -5476 c-7 -2 -21 -2 -30 0 -10 3 -4 5 12 5 17 0 24 -2
18 -5z m-2363 -2071 c30 -12 30 -12 -105 -45 -190 -46 -311 -127 -350 -232
-23 -63 -46 -88 -81 -87 -40 0 -64 34 -64 92 0 68 24 116 91 181 49 49 71 62
136 84 72 23 89 25 213 21 74 -2 146 -8 160 -14z"/>
<path d="M8448 4016 c-75 -31 -130 -76 -167 -136 -41 -66 -55 -126 -49 -214 6
-90 35 -153 98 -216 62 -63 126 -92 215 -98 154 -10 268 55 342 193 24 44 27
61 28 145 0 115 -19 163 -95 244 -96 102 -245 134 -372 82z"/>
<path d="M8007 3626 c-76 -28 -117 -88 -117 -171 0 -59 19 -104 58 -137 162
-136 385 57 273 234 -17 26 -43 53 -58 61 -44 23 -113 29 -156 13z m124 -51
c97 -51 88 -205 -13 -243 -133 -51 -242 112 -146 216 41 44 105 55 159 27z"/>
<path d="M8390 3163 c-50 -35 -66 -77 -49 -136 17 -64 100 -103 155 -74 44 23
65 51 71 95 6 44 -14 92 -49 116 -30 21 -97 20 -128 -1z"/>
<path d="M8589 2831 c-20 -20 -29 -39 -29 -61 0 -37 47 -90 80 -90 29 0 77 26
90 49 29 55 -18 131 -80 131 -22 0 -41 -9 -61 -29z"/>
<path d="M4030 2420 c0 -19 -7 -20 -95 -20 -95 0 -95 0 -95 -25 l0 -25 245 0
245 0 0 25 0 25 -100 0 c-93 0 -100 1 -100 20 0 17 -7 20 -50 20 -43 0 -50 -3
-50 -20z"/>
<path d="M6586 2432 c-2 -1 1 -23 6 -48 14 -67 8 -74 -62 -74 -53 0 -60 -2
-60 -20 0 -18 7 -20 70 -20 68 0 70 -1 76 -27 10 -46 14 -62 20 -83 5 -17 1
-20 -28 -20 -18 0 -57 -3 -85 -6 -48 -6 -53 -9 -53 -31 l0 -25 89 7 89 7 11
-66 c6 -37 9 -71 7 -75 -3 -5 -49 -16 -101 -26 -94 -17 -95 -17 -95 -46 0 -33
-8 -32 111 -3 104 26 105 25 121 -63 l14 -78 122 -3 122 -3 0 26 c0 24 -2 25
-69 25 -39 0 -72 4 -75 8 -2 4 -8 35 -11 69 l-7 61 58 12 c33 6 69 14 82 16
16 3 22 11 22 29 0 14 -1 25 -2 25 -2 0 -41 -7 -87 -15 -47 -8 -85 -14 -86
-12 -9 15 -23 113 -17 119 4 4 49 11 100 14 85 6 92 9 92 28 0 20 -4 21 -101
18 -56 -2 -105 0 -109 5 -4 4 -11 32 -15 61 l-7 52 116 0 c109 0 116 1 116 20
0 11 -6 20 -12 20 -7 1 -59 1 -115 1 -66 0 -105 4 -111 12 -6 7 -14 32 -19 57
l-9 45 -52 5 c-29 3 -54 4 -56 2z"/>
<path d="M2594 2408 c-22 -24 -164 -210 -203 -265 l-22 -33 118 0 119 0 63 85
63 85 131 0 132 0 38 51 c22 30 37 60 35 73 -3 21 -7 21 -229 24 -223 2 -225
2 -245 -20z"/>
<path d="M3658 2383 l-3 -48 -52 -3 c-49 -3 -53 -5 -53 -28 0 -17 5 -24 20
-24 26 0 26 -23 0 -245 -11 -93 -20 -189 -20 -213 l0 -43 38 3 37 3 8 77 c13
137 26 136 25 -2 l0 -125 51 -3 51 -3 0 148 0 148 54 -3 55 -4 -15 54 c-17 66
-17 68 0 68 11 0 105 -98 155 -162 14 -19 19 -11 -157 -220 l-24 -28 59 0 58
0 65 80 c36 43 68 78 71 77 3 -1 36 -37 73 -79 l67 -78 528 0 529 0 68 138 69
137 3 -138 3 -138 52 3 52 3 0 195 c0 195 0 195 -22 198 -13 2 -23 6 -22 10 0
4 19 45 42 92 l42 85 268 3 267 2 0 25 0 25 -256 0 c-278 0 -258 -4 -237 48 4
9 -11 12 -56 12 -57 0 -61 -2 -76 -30 -15 -28 -19 -30 -75 -30 -57 0 -60 -1
-60 -25 0 -23 4 -25 45 -25 30 0 45 -4 44 -12 0 -7 -58 -128 -127 -268 l-127
-255 -170 0 -170 0 0 95 0 95 133 3 132 3 0 24 0 25 -135 0 -135 0 0 75 0 75
140 0 140 0 0 30 0 30 -325 0 -325 0 0 -30 0 -30 135 0 136 0 -3 -72 -3 -73
-140 -5 c-132 -5 -140 -6 -140 -25 0 -19 8 -20 140 -25 l140 -5 0 -95 0 -95
-210 -2 c-115 -2 -215 0 -220 5 -6 4 -43 44 -83 90 l-73 83 26 31 c89 106 130
148 142 148 17 0 17 3 -22 103 l-30 77 -47 0 c-27 0 -48 -2 -48 -4 0 -3 14
-38 30 -79 36 -90 36 -97 8 -97 -16 0 -38 -18 -68 -55 -25 -30 -47 -55 -50
-54 -3 0 -25 25 -50 54 -31 39 -51 55 -68 55 -27 0 -26 5 19 113 l28 67 -48 0
c-46 0 -49 -2 -64 -37 -62 -146 -58 -141 -69 -111 -6 19 -17 28 -36 30 -23 3
-27 8 -30 41 -3 36 -3 37 32 37 20 0 37 5 38 10 4 30 0 35 -32 40 -34 5 -35 7
-38 53 l-3 47 -49 0 -49 0 -3 -47z"/>
<path d="M4728 2408 c-3 -23 -4 -23 -169 -26 l-165 -2 0 -50 0 -50 54 0 c49 0
54 2 49 20 -3 11 -2 22 2 25 4 2 131 5 282 6 l274 1 3 -26 c3 -24 7 -26 53
-26 l49 0 0 50 0 50 -164 0 c-163 0 -165 0 -168 23 -3 19 -10 22 -50 25 -42 3
-47 1 -50 -20z"/>
<path d="M6252 2398 c-46 -77 -102 -200 -102 -223 0 -24 3 -25 53 -25 30 0 56
-3 60 -6 6 -6 -31 -78 -85 -163 -15 -25 -28 -58 -28 -73 l0 -28 130 0 130 0 0
30 0 30 -65 0 c-76 0 -78 5 -37 71 15 24 45 74 65 112 l38 67 -71 0 c-41 0
-70 4 -70 10 0 6 25 60 55 120 l55 110 -54 0 c-51 0 -56 -2 -74 -32z"/>
<path d="M6820 2385 c0 -45 0 -45 35 -45 35 0 35 0 35 45 0 45 0 45 -35 45
-35 0 -35 0 -35 -45z"/>
<path d="M2767 2247 c4 -7 28 -41 52 -75 l45 -62 254 0 254 0 -53 68 c-30 37
-58 70 -64 74 -5 4 -119 8 -253 8 -196 0 -241 -2 -235 -13z"/>
<path d="M5768 2208 l-3 -53 -93 -3 c-90 -3 -93 -4 -90 -25 3 -21 9 -22 96
-25 l93 -3 -3 -157 -3 -157 -98 -5 c-53 -3 -97 -8 -97 -12 0 -5 0 -15 0 -23 0
-13 53 -15 418 -15 230 0 421 3 424 6 3 3 4 14 1 24 -5 19 -18 20 -272 22
l-266 3 -3 158 -3 157 86 0 c84 0 85 0 85 25 0 24 -2 24 -82 27 l-83 3 -3 53
-3 52 -49 0 -49 0 -3 -52z"/>
<path d="M2370 2082 c0 -4 24 -39 53 -77 l54 -70 246 -3 c136 -1 247 1 247 5
0 3 -25 40 -56 80 l-56 73 -244 0 c-134 0 -244 -3 -244 -8z"/>
<path d="M3125 2073 c-8 -10 -38 -49 -68 -88 l-53 -70 -135 -3 -134 -3 -52
-74 c-29 -40 -53 -76 -53 -79 0 -3 109 -6 243 -6 l244 0 30 38 c83 105 213
282 213 291 0 7 -38 11 -110 11 -93 0 -113 -3 -125 -17z"/>
<path d="M5020 1874 l0 -55 42 3 42 3 0 53 1 52 -42 0 -43 0 0 -56z"/>
<path d="M2630 1735 c0 -9 195 -269 214 -284 11 -9 23 -11 35 -5 21 10 101
113 100 129 0 5 -26 44 -57 85 l-58 75 -117 3 c-64 1 -117 0 -117 -3z"/>
<path d="M3550 1595 l0 -65 75 0 75 0 0 -30 0 -30 -75 0 c-61 0 -75 -3 -75
-15 0 -13 16 -15 103 -13 l102 3 3 58 3 57 -76 0 -75 0 0 35 0 35 75 0 c60 0
75 3 75 15 0 12 -18 15 -105 15 l-105 0 0 -65z"/>
<path d="M3797 1654 c-4 -4 -7 -54 -7 -111 l0 -104 108 3 c124 3 143 21 27 26
l-75 3 0 79 0 79 78 3 c43 2 77 7 77 13 0 11 -197 20 -208 9z"/>
<path d="M4040 1550 l0 -110 30 0 c29 0 30 2 30 45 l0 45 50 0 50 0 0 -45 c0
-41 2 -45 25 -45 l25 0 0 110 0 110 -24 0 c-23 0 -25 -5 -28 -47 l-3 -48 -45
0 -45 0 -3 48 c-3 45 -5 47 -33 47 l-29 0 0 -110z"/>
<path d="M4287 1653 c-4 -3 -7 -53 -7 -110 l0 -103 110 0 110 0 0 110 0 110
-103 0 c-57 0 -107 -3 -110 -7z m143 -103 l0 -80 -45 0 -45 0 0 80 0 80 45 0
45 0 0 -80z"/>
<path d="M4527 1654 c-4 -4 -7 -54 -7 -111 l0 -103 110 0 111 0 -3 108 -3 107
-101 3 c-55 1 -103 0 -107 -4z m153 -104 l0 -80 -45 0 -45 0 0 80 0 80 45 0
45 0 0 -80z"/>
<path d="M4765 1647 c-3 -7 -4 -56 -3 -108 l3 -94 88 -3 c73 -2 87 0 87 13 0
12 -12 15 -55 15 l-54 0 -3 93 -3 92 -28 3 c-16 2 -29 -2 -32 -11z"/>
<path d="M4970 1550 l0 -110 30 0 c28 0 30 2 30 40 l0 40 65 0 65 0 0 70 0 70
-95 0 -95 0 0 -110z m130 40 c0 -39 -1 -40 -35 -40 -34 0 -35 1 -35 40 0 39 1
40 35 40 34 0 35 -1 35 -40z"/>
<path d="M5256 1648 c-28 -89 -56 -176 -61 -190 -6 -15 -1 -18 28 -18 29 0 36
4 41 25 6 22 12 25 50 25 36 0 45 -4 54 -25 9 -19 19 -25 42 -25 16 0 30 3 30
8 0 4 -15 52 -34 107 l-34 100 -56 3 c-40 2 -57 -1 -60 -10z m73 -40 c5 -13
12 -38 16 -55 6 -32 5 -33 -24 -33 -16 0 -32 4 -35 8 -4 7 25 102 32 102 1 0
6 -10 11 -22z"/>
<path d="M5470 1550 l0 -110 91 0 c68 0 90 3 87 13 -3 7 -27 13 -61 15 l-57 3
0 94 0 95 -30 0 -30 0 0 -110z"/>
<path d="M5760 1550 l0 -110 105 0 105 0 0 110 0 110 -105 0 -105 0 0 -110z
m150 0 l0 -80 -45 0 -45 0 0 80 0 80 45 0 45 0 0 -80z"/>
<path d="M6000 1550 l0 -110 30 0 30 0 0 73 c1 67 2 71 16 52 8 -11 27 -44 40
-72 23 -49 28 -53 60 -53 l34 0 0 110 0 110 -25 0 c-24 0 -25 -2 -25 -70 0
-38 -4 -70 -8 -70 -4 0 -25 32 -46 70 -35 66 -40 70 -72 70 l-34 0 0 -110z"/>
<path d="M6240 1550 l0 -110 91 0 c68 0 90 3 87 13 -3 7 -27 13 -61 15 l-57 3
0 94 0 95 -30 0 -30 0 0 -110z"/>
<path d="M6440 1550 l0 -110 30 0 30 0 0 110 0 110 -30 0 -30 0 0 -110z"/>
<path d="M6530 1550 l0 -110 30 0 30 0 0 65 c0 36 3 65 8 65 4 0 23 -29 41
-65 32 -60 37 -65 68 -65 l33 0 0 111 0 110 -27 -3 c-27 -3 -28 -6 -33 -73
l-5 -70 -34 65 c-39 74 -45 80 -83 80 l-28 0 0 -110z"/>
<path d="M6770 1550 l0 -110 95 0 c78 0 95 3 95 15 0 12 -14 15 -66 15 l-65 0
3 33 c3 32 3 32 66 35 34 2 62 7 62 12 0 5 -28 10 -62 12 -63 3 -63 3 -66 36
l-3 32 65 0 c52 0 66 3 66 15 0 12 -17 15 -95 15 l-95 0 0 -110z"/>
</g>
</svg>
